<mxfile host="app.diagrams.net" agent="Mozilla/5.0 (Windows NT 10.0; Win64; x64) AppleWebKit/537.36 (KHTML, like Gecko) Chrome/134.0.0.0 Safari/537.36 OPR/119.0.0.0" version="27.1.3">
  <diagram name="Page-1" id="KL36ChU9oAp8NsP1BuJF">
    <mxGraphModel dx="3520" dy="2082" grid="1" gridSize="10" guides="1" tooltips="1" connect="1" arrows="1" fold="1" page="1" pageScale="1" pageWidth="850" pageHeight="1100" math="0" shadow="0">
      <root>
        <mxCell id="0" />
        <mxCell id="1" parent="0" />
        <mxCell id="8LZbqdLIqy8Ak0c2T1Xg-3" value="User" style="swimlane;whiteSpace=wrap;html=1;startSize=23;" parent="1" vertex="1">
          <mxGeometry x="-760" y="-920" width="200" height="50" as="geometry" />
        </mxCell>
        <mxCell id="8LZbqdLIqy8Ak0c2T1Xg-15" value="" style="triangle;whiteSpace=wrap;html=1;direction=north;" parent="1" vertex="1">
          <mxGeometry x="-680" y="-870" width="40" height="30" as="geometry" />
        </mxCell>
        <mxCell id="8LZbqdLIqy8Ak0c2T1Xg-43" value="" style="endArrow=none;html=1;rounded=0;" parent="1" source="8LZbqdLIqy8Ak0c2T1Xg-32" target="DsRGrckUI44jEq6h8jwT-5" edge="1">
          <mxGeometry width="50" height="50" relative="1" as="geometry">
            <mxPoint x="-406" y="-522" as="sourcePoint" />
            <mxPoint x="-405.77" y="-640" as="targetPoint" />
          </mxGeometry>
        </mxCell>
        <mxCell id="8LZbqdLIqy8Ak0c2T1Xg-46" value="" style="endArrow=none;html=1;rounded=0;edgeStyle=orthogonalEdgeStyle;" parent="1" source="8LZbqdLIqy8Ak0c2T1Xg-37" target="8LZbqdLIqy8Ak0c2T1Xg-32" edge="1">
          <mxGeometry width="50" height="50" relative="1" as="geometry">
            <mxPoint x="-434" y="-305" as="sourcePoint" />
            <mxPoint x="-433.77" y="-423" as="targetPoint" />
            <Array as="points">
              <mxPoint x="-520" y="-296" />
              <mxPoint x="-520" y="-400" />
            </Array>
          </mxGeometry>
        </mxCell>
        <mxCell id="_bq464Kxq-2n_JhR32WJ-15" value="Extreme events" style="swimlane;fontStyle=0;childLayout=stackLayout;horizontal=1;startSize=26;fillColor=none;horizontalStack=0;resizeParent=1;resizeParentMax=0;resizeLast=0;collapsible=1;marginBottom=0;whiteSpace=wrap;html=1;" parent="1" vertex="1">
          <mxGeometry x="-1050" y="-509" width="200" height="130" as="geometry" />
        </mxCell>
        <mxCell id="_bq464Kxq-2n_JhR32WJ-19" value="+ category" style="text;strokeColor=none;fillColor=none;align=left;verticalAlign=top;spacingLeft=4;spacingRight=4;overflow=hidden;rotatable=0;points=[[0,0.5],[1,0.5]];portConstraint=eastwest;whiteSpace=wrap;html=1;" parent="_bq464Kxq-2n_JhR32WJ-15" vertex="1">
          <mxGeometry y="26" width="200" height="26" as="geometry" />
        </mxCell>
        <mxCell id="_bq464Kxq-2n_JhR32WJ-20" value="+ strength" style="text;strokeColor=none;fillColor=none;align=left;verticalAlign=top;spacingLeft=4;spacingRight=4;overflow=hidden;rotatable=0;points=[[0,0.5],[1,0.5]];portConstraint=eastwest;whiteSpace=wrap;html=1;" parent="_bq464Kxq-2n_JhR32WJ-15" vertex="1">
          <mxGeometry y="52" width="200" height="26" as="geometry" />
        </mxCell>
        <mxCell id="_bq464Kxq-2n_JhR32WJ-40" value="+ date start" style="text;strokeColor=none;fillColor=none;align=left;verticalAlign=top;spacingLeft=4;spacingRight=4;overflow=hidden;rotatable=0;points=[[0,0.5],[1,0.5]];portConstraint=eastwest;whiteSpace=wrap;html=1;" parent="_bq464Kxq-2n_JhR32WJ-15" vertex="1">
          <mxGeometry y="78" width="200" height="26" as="geometry" />
        </mxCell>
        <mxCell id="_bq464Kxq-2n_JhR32WJ-18" value="+ date end" style="text;strokeColor=none;fillColor=none;align=left;verticalAlign=top;spacingLeft=4;spacingRight=4;overflow=hidden;rotatable=0;points=[[0,0.5],[1,0.5]];portConstraint=eastwest;whiteSpace=wrap;html=1;" parent="_bq464Kxq-2n_JhR32WJ-15" vertex="1">
          <mxGeometry y="104" width="200" height="26" as="geometry" />
        </mxCell>
        <mxCell id="_bq464Kxq-2n_JhR32WJ-29" value="1" style="text;html=1;align=center;verticalAlign=middle;whiteSpace=wrap;rounded=0;" parent="1" vertex="1">
          <mxGeometry x="-790" y="-474" width="26" height="30" as="geometry" />
        </mxCell>
        <mxCell id="vu7ZgvzgDM2wSOWyn7wq-27" style="edgeStyle=orthogonalEdgeStyle;rounded=0;orthogonalLoop=1;jettySize=auto;html=1;entryX=0.5;entryY=0;entryDx=0;entryDy=0;endArrow=none;startFill=0;" edge="1" parent="1" source="8LZbqdLIqy8Ak0c2T1Xg-32" target="vu7ZgvzgDM2wSOWyn7wq-20">
          <mxGeometry relative="1" as="geometry" />
        </mxCell>
        <mxCell id="8LZbqdLIqy8Ak0c2T1Xg-32" value="City" style="swimlane;fontStyle=0;childLayout=stackLayout;horizontal=1;startSize=26;fillColor=none;horizontalStack=0;resizeParent=1;resizeParentMax=0;resizeLast=0;collapsible=1;marginBottom=0;whiteSpace=wrap;html=1;" parent="1" vertex="1">
          <mxGeometry x="-760" y="-537" width="200" height="186" as="geometry" />
        </mxCell>
        <mxCell id="8LZbqdLIqy8Ak0c2T1Xg-33" value="+ name" style="text;strokeColor=none;fillColor=none;align=left;verticalAlign=top;spacingLeft=4;spacingRight=4;overflow=hidden;rotatable=0;points=[[0,0.5],[1,0.5]];portConstraint=eastwest;whiteSpace=wrap;html=1;" parent="8LZbqdLIqy8Ak0c2T1Xg-32" vertex="1">
          <mxGeometry y="26" width="200" height="26" as="geometry" />
        </mxCell>
        <mxCell id="_bq464Kxq-2n_JhR32WJ-42" value="+ region" style="text;strokeColor=none;fillColor=none;align=left;verticalAlign=top;spacingLeft=4;spacingRight=4;overflow=hidden;rotatable=0;points=[[0,0.5],[1,0.5]];portConstraint=eastwest;whiteSpace=wrap;html=1;" parent="8LZbqdLIqy8Ak0c2T1Xg-32" vertex="1">
          <mxGeometry y="52" width="200" height="26" as="geometry" />
        </mxCell>
        <mxCell id="8LZbqdLIqy8Ak0c2T1Xg-35" value="+ longitude" style="text;strokeColor=none;fillColor=none;align=left;verticalAlign=top;spacingLeft=4;spacingRight=4;overflow=hidden;rotatable=0;points=[[0,0.5],[1,0.5]];portConstraint=eastwest;whiteSpace=wrap;html=1;" parent="8LZbqdLIqy8Ak0c2T1Xg-32" vertex="1">
          <mxGeometry y="78" width="200" height="28" as="geometry" />
        </mxCell>
        <mxCell id="_bq464Kxq-2n_JhR32WJ-31" value="+ latitude" style="text;strokeColor=none;fillColor=none;align=left;verticalAlign=top;spacingLeft=4;spacingRight=4;overflow=hidden;rotatable=0;points=[[0,0.5],[1,0.5]];portConstraint=eastwest;whiteSpace=wrap;html=1;" parent="8LZbqdLIqy8Ak0c2T1Xg-32" vertex="1">
          <mxGeometry y="106" width="200" height="26" as="geometry" />
        </mxCell>
        <mxCell id="_bq464Kxq-2n_JhR32WJ-39" value="+ elevation" style="text;strokeColor=none;fillColor=none;align=left;verticalAlign=top;spacingLeft=4;spacingRight=4;overflow=hidden;rotatable=0;points=[[0,0.5],[1,0.5]];portConstraint=eastwest;whiteSpace=wrap;html=1;" parent="8LZbqdLIqy8Ak0c2T1Xg-32" vertex="1">
          <mxGeometry y="132" width="200" height="26" as="geometry" />
        </mxCell>
        <mxCell id="_bq464Kxq-2n_JhR32WJ-44" value="+ followers" style="text;strokeColor=none;fillColor=none;align=left;verticalAlign=top;spacingLeft=4;spacingRight=4;overflow=hidden;rotatable=0;points=[[0,0.5],[1,0.5]];portConstraint=eastwest;whiteSpace=wrap;html=1;" parent="8LZbqdLIqy8Ak0c2T1Xg-32" vertex="1">
          <mxGeometry y="158" width="200" height="28" as="geometry" />
        </mxCell>
        <mxCell id="8LZbqdLIqy8Ak0c2T1Xg-37" value="Hourly Measurement" style="swimlane;fontStyle=0;childLayout=stackLayout;horizontal=1;startSize=26;fillColor=none;horizontalStack=0;resizeParent=1;resizeParentMax=0;resizeLast=0;collapsible=1;marginBottom=0;whiteSpace=wrap;html=1;" parent="1" vertex="1">
          <mxGeometry x="-480" y="-374" width="200" height="156" as="geometry" />
        </mxCell>
        <mxCell id="_bq464Kxq-2n_JhR32WJ-36" value="+ temperature" style="text;strokeColor=none;fillColor=none;align=left;verticalAlign=top;spacingLeft=4;spacingRight=4;overflow=hidden;rotatable=0;points=[[0,0.5],[1,0.5]];portConstraint=eastwest;whiteSpace=wrap;html=1;" parent="8LZbqdLIqy8Ak0c2T1Xg-37" vertex="1">
          <mxGeometry y="26" width="200" height="26" as="geometry" />
        </mxCell>
        <mxCell id="8LZbqdLIqy8Ak0c2T1Xg-39" value="+ rainfall" style="text;strokeColor=none;fillColor=none;align=left;verticalAlign=top;spacingLeft=4;spacingRight=4;overflow=hidden;rotatable=0;points=[[0,0.5],[1,0.5]];portConstraint=eastwest;whiteSpace=wrap;html=1;" parent="8LZbqdLIqy8Ak0c2T1Xg-37" vertex="1">
          <mxGeometry y="52" width="200" height="26" as="geometry" />
        </mxCell>
        <mxCell id="_bq464Kxq-2n_JhR32WJ-33" value="+ snowfall" style="text;strokeColor=none;fillColor=none;align=left;verticalAlign=top;spacingLeft=4;spacingRight=4;overflow=hidden;rotatable=0;points=[[0,0.5],[1,0.5]];portConstraint=eastwest;whiteSpace=wrap;html=1;" parent="8LZbqdLIqy8Ak0c2T1Xg-37" vertex="1">
          <mxGeometry y="78" width="200" height="26" as="geometry" />
        </mxCell>
        <mxCell id="_bq464Kxq-2n_JhR32WJ-34" value="+ wind speed" style="text;strokeColor=none;fillColor=none;align=left;verticalAlign=top;spacingLeft=4;spacingRight=4;overflow=hidden;rotatable=0;points=[[0,0.5],[1,0.5]];portConstraint=eastwest;whiteSpace=wrap;html=1;" parent="8LZbqdLIqy8Ak0c2T1Xg-37" vertex="1">
          <mxGeometry y="104" width="200" height="26" as="geometry" />
        </mxCell>
        <mxCell id="8LZbqdLIqy8Ak0c2T1Xg-40" value="+ timestamp" style="text;strokeColor=none;fillColor=none;align=left;verticalAlign=top;spacingLeft=4;spacingRight=4;overflow=hidden;rotatable=0;points=[[0,0.5],[1,0.5]];portConstraint=eastwest;whiteSpace=wrap;html=1;" parent="8LZbqdLIqy8Ak0c2T1Xg-37" vertex="1">
          <mxGeometry y="130" width="200" height="26" as="geometry" />
        </mxCell>
        <mxCell id="vu7ZgvzgDM2wSOWyn7wq-10" style="edgeStyle=orthogonalEdgeStyle;rounded=0;orthogonalLoop=1;jettySize=auto;html=1;exitX=0.5;exitY=0;exitDx=0;exitDy=0;entryX=0.5;entryY=0;entryDx=0;entryDy=0;endArrow=none;startFill=0;" edge="1" parent="1" source="DsRGrckUI44jEq6h8jwT-1" target="vu7ZgvzgDM2wSOWyn7wq-4">
          <mxGeometry relative="1" as="geometry" />
        </mxCell>
        <mxCell id="DsRGrckUI44jEq6h8jwT-1" value="Admin" style="swimlane;fontStyle=0;childLayout=stackLayout;horizontal=1;startSize=26;fillColor=none;horizontalStack=0;resizeParent=1;resizeParentMax=0;resizeLast=0;collapsible=1;marginBottom=0;whiteSpace=wrap;html=1;" parent="1" vertex="1">
          <mxGeometry x="-1000" y="-784" width="200" height="104" as="geometry" />
        </mxCell>
        <mxCell id="DsRGrckUI44jEq6h8jwT-2" value="+ username" style="text;strokeColor=none;fillColor=none;align=left;verticalAlign=top;spacingLeft=4;spacingRight=4;overflow=hidden;rotatable=0;points=[[0,0.5],[1,0.5]];portConstraint=eastwest;whiteSpace=wrap;html=1;" parent="DsRGrckUI44jEq6h8jwT-1" vertex="1">
          <mxGeometry y="26" width="200" height="26" as="geometry" />
        </mxCell>
        <mxCell id="DsRGrckUI44jEq6h8jwT-3" value="+ email" style="text;strokeColor=none;fillColor=none;align=left;verticalAlign=top;spacingLeft=4;spacingRight=4;overflow=hidden;rotatable=0;points=[[0,0.5],[1,0.5]];portConstraint=eastwest;whiteSpace=wrap;html=1;" parent="DsRGrckUI44jEq6h8jwT-1" vertex="1">
          <mxGeometry y="52" width="200" height="26" as="geometry" />
        </mxCell>
        <mxCell id="DsRGrckUI44jEq6h8jwT-4" value="+ password" style="text;strokeColor=none;fillColor=none;align=left;verticalAlign=top;spacingLeft=4;spacingRight=4;overflow=hidden;rotatable=0;points=[[0,0.5],[1,0.5]];portConstraint=eastwest;whiteSpace=wrap;html=1;" parent="DsRGrckUI44jEq6h8jwT-1" vertex="1">
          <mxGeometry y="78" width="200" height="26" as="geometry" />
        </mxCell>
        <mxCell id="vu7ZgvzgDM2wSOWyn7wq-11" style="edgeStyle=orthogonalEdgeStyle;rounded=0;orthogonalLoop=1;jettySize=auto;html=1;exitX=0.5;exitY=0;exitDx=0;exitDy=0;entryX=0;entryY=0.5;entryDx=0;entryDy=0;endArrow=none;startFill=0;" edge="1" parent="1" source="DsRGrckUI44jEq6h8jwT-5" target="8LZbqdLIqy8Ak0c2T1Xg-15">
          <mxGeometry relative="1" as="geometry" />
        </mxCell>
        <mxCell id="DsRGrckUI44jEq6h8jwT-5" value="Registered" style="swimlane;fontStyle=0;childLayout=stackLayout;horizontal=1;startSize=26;fillColor=none;horizontalStack=0;resizeParent=1;resizeParentMax=0;resizeLast=0;collapsible=1;marginBottom=0;whiteSpace=wrap;html=1;" parent="1" vertex="1">
          <mxGeometry x="-760" y="-784" width="200" height="104" as="geometry" />
        </mxCell>
        <mxCell id="DsRGrckUI44jEq6h8jwT-6" value="+ username" style="text;strokeColor=none;fillColor=none;align=left;verticalAlign=top;spacingLeft=4;spacingRight=4;overflow=hidden;rotatable=0;points=[[0,0.5],[1,0.5]];portConstraint=eastwest;whiteSpace=wrap;html=1;" parent="DsRGrckUI44jEq6h8jwT-5" vertex="1">
          <mxGeometry y="26" width="200" height="26" as="geometry" />
        </mxCell>
        <mxCell id="DsRGrckUI44jEq6h8jwT-7" value="+ email" style="text;strokeColor=none;fillColor=none;align=left;verticalAlign=top;spacingLeft=4;spacingRight=4;overflow=hidden;rotatable=0;points=[[0,0.5],[1,0.5]];portConstraint=eastwest;whiteSpace=wrap;html=1;" parent="DsRGrckUI44jEq6h8jwT-5" vertex="1">
          <mxGeometry y="52" width="200" height="26" as="geometry" />
        </mxCell>
        <mxCell id="DsRGrckUI44jEq6h8jwT-8" value="+ password" style="text;strokeColor=none;fillColor=none;align=left;verticalAlign=top;spacingLeft=4;spacingRight=4;overflow=hidden;rotatable=0;points=[[0,0.5],[1,0.5]];portConstraint=eastwest;whiteSpace=wrap;html=1;" parent="DsRGrckUI44jEq6h8jwT-5" vertex="1">
          <mxGeometry y="78" width="200" height="26" as="geometry" />
        </mxCell>
        <mxCell id="8LZbqdLIqy8Ak0c2T1Xg-44" value="0...*" style="text;html=1;align=center;verticalAlign=middle;whiteSpace=wrap;rounded=0;" parent="1" vertex="1">
          <mxGeometry x="-690" y="-680" width="30" height="30" as="geometry" />
        </mxCell>
        <mxCell id="ELRr-YWoEcc8-p4F5EGj-18" value="Prediction" style="swimlane;fontStyle=0;childLayout=stackLayout;horizontal=1;startSize=26;fillColor=none;horizontalStack=0;resizeParent=1;resizeParentMax=0;resizeLast=0;collapsible=1;marginBottom=0;whiteSpace=wrap;html=1;" parent="1" vertex="1">
          <mxGeometry x="-480" y="-610" width="200" height="156" as="geometry" />
        </mxCell>
        <mxCell id="ELRr-YWoEcc8-p4F5EGj-19" value="+ temperature" style="text;strokeColor=none;fillColor=none;align=left;verticalAlign=top;spacingLeft=4;spacingRight=4;overflow=hidden;rotatable=0;points=[[0,0.5],[1,0.5]];portConstraint=eastwest;whiteSpace=wrap;html=1;" parent="ELRr-YWoEcc8-p4F5EGj-18" vertex="1">
          <mxGeometry y="26" width="200" height="26" as="geometry" />
        </mxCell>
        <mxCell id="vu7ZgvzgDM2wSOWyn7wq-2" value="+ rainfall" style="text;strokeColor=none;fillColor=none;align=left;verticalAlign=top;spacingLeft=4;spacingRight=4;overflow=hidden;rotatable=0;points=[[0,0.5],[1,0.5]];portConstraint=eastwest;whiteSpace=wrap;html=1;" vertex="1" parent="ELRr-YWoEcc8-p4F5EGj-18">
          <mxGeometry y="52" width="200" height="26" as="geometry" />
        </mxCell>
        <mxCell id="ELRr-YWoEcc8-p4F5EGj-20" value="+ snowfall" style="text;strokeColor=none;fillColor=none;align=left;verticalAlign=top;spacingLeft=4;spacingRight=4;overflow=hidden;rotatable=0;points=[[0,0.5],[1,0.5]];portConstraint=eastwest;whiteSpace=wrap;html=1;" parent="ELRr-YWoEcc8-p4F5EGj-18" vertex="1">
          <mxGeometry y="78" width="200" height="26" as="geometry" />
        </mxCell>
        <mxCell id="ELRr-YWoEcc8-p4F5EGj-22" value="+ wind speed" style="text;strokeColor=none;fillColor=none;align=left;verticalAlign=top;spacingLeft=4;spacingRight=4;overflow=hidden;rotatable=0;points=[[0,0.5],[1,0.5]];portConstraint=eastwest;whiteSpace=wrap;html=1;" parent="ELRr-YWoEcc8-p4F5EGj-18" vertex="1">
          <mxGeometry y="104" width="200" height="26" as="geometry" />
        </mxCell>
        <mxCell id="ELRr-YWoEcc8-p4F5EGj-24" value="+ hours_ahead" style="text;strokeColor=none;fillColor=none;align=left;verticalAlign=top;spacingLeft=4;spacingRight=4;overflow=hidden;rotatable=0;points=[[0,0.5],[1,0.5]];portConstraint=eastwest;whiteSpace=wrap;html=1;" parent="ELRr-YWoEcc8-p4F5EGj-18" vertex="1">
          <mxGeometry y="130" width="200" height="26" as="geometry" />
        </mxCell>
        <mxCell id="vu7ZgvzgDM2wSOWyn7wq-3" style="rounded=0;orthogonalLoop=1;jettySize=auto;html=1;exitX=0;exitY=0.5;exitDx=0;exitDy=0;endArrow=none;startFill=0;edgeStyle=orthogonalEdgeStyle;" edge="1" parent="1" source="ELRr-YWoEcc8-p4F5EGj-20" target="8LZbqdLIqy8Ak0c2T1Xg-32">
          <mxGeometry relative="1" as="geometry">
            <Array as="points">
              <mxPoint x="-480" y="-524" />
              <mxPoint x="-520" y="-524" />
              <mxPoint x="-520" y="-470" />
            </Array>
          </mxGeometry>
        </mxCell>
        <mxCell id="vu7ZgvzgDM2wSOWyn7wq-4" value="Guest" style="swimlane;fontStyle=0;childLayout=stackLayout;horizontal=1;startSize=26;fillColor=none;horizontalStack=0;resizeParent=1;resizeParentMax=0;resizeLast=0;collapsible=1;marginBottom=0;whiteSpace=wrap;html=1;" vertex="1" parent="1">
          <mxGeometry x="-520" y="-784" width="200" height="52" as="geometry" />
        </mxCell>
        <mxCell id="vu7ZgvzgDM2wSOWyn7wq-12" style="rounded=0;orthogonalLoop=1;jettySize=auto;html=1;exitX=1;exitY=0.5;exitDx=0;exitDy=0;endArrow=none;startFill=0;" edge="1" parent="1" source="_bq464Kxq-2n_JhR32WJ-20" target="8LZbqdLIqy8Ak0c2T1Xg-32">
          <mxGeometry relative="1" as="geometry" />
        </mxCell>
        <mxCell id="vu7ZgvzgDM2wSOWyn7wq-13" value="0...*" style="text;html=1;align=center;verticalAlign=middle;whiteSpace=wrap;rounded=0;" vertex="1" parent="1">
          <mxGeometry x="-650" y="-567" width="30" height="30" as="geometry" />
        </mxCell>
        <mxCell id="vu7ZgvzgDM2wSOWyn7wq-14" value="1" style="text;html=1;align=center;verticalAlign=middle;whiteSpace=wrap;rounded=0;" vertex="1" parent="1">
          <mxGeometry x="-560" y="-390" width="26" height="30" as="geometry" />
        </mxCell>
        <mxCell id="vu7ZgvzgDM2wSOWyn7wq-16" value="1" style="text;html=1;align=center;verticalAlign=middle;whiteSpace=wrap;rounded=0;" vertex="1" parent="1">
          <mxGeometry x="-560" y="-504" width="26" height="30" as="geometry" />
        </mxCell>
        <mxCell id="vu7ZgvzgDM2wSOWyn7wq-17" value="0...*" style="text;html=1;align=center;verticalAlign=middle;whiteSpace=wrap;rounded=0;" vertex="1" parent="1">
          <mxGeometry x="-510" y="-520" width="30" height="30" as="geometry" />
        </mxCell>
        <mxCell id="vu7ZgvzgDM2wSOWyn7wq-18" value="0...*" style="text;html=1;align=center;verticalAlign=middle;whiteSpace=wrap;rounded=0;" vertex="1" parent="1">
          <mxGeometry x="-510" y="-325" width="30" height="30" as="geometry" />
        </mxCell>
        <mxCell id="vu7ZgvzgDM2wSOWyn7wq-19" value="0...*" style="text;html=1;align=center;verticalAlign=middle;whiteSpace=wrap;rounded=0;" vertex="1" parent="1">
          <mxGeometry x="-850" y="-444" width="30" height="30" as="geometry" />
        </mxCell>
        <mxCell id="vu7ZgvzgDM2wSOWyn7wq-20" value="Extreme weather thresholds" style="swimlane;fontStyle=0;childLayout=stackLayout;horizontal=1;startSize=26;fillColor=none;horizontalStack=0;resizeParent=1;resizeParentMax=0;resizeLast=0;collapsible=1;marginBottom=0;whiteSpace=wrap;html=1;" vertex="1" parent="1">
          <mxGeometry x="-760" y="-264" width="200" height="156" as="geometry" />
        </mxCell>
        <mxCell id="vu7ZgvzgDM2wSOWyn7wq-21" value="+ max temperature" style="text;strokeColor=none;fillColor=none;align=left;verticalAlign=top;spacingLeft=4;spacingRight=4;overflow=hidden;rotatable=0;points=[[0,0.5],[1,0.5]];portConstraint=eastwest;whiteSpace=wrap;html=1;" vertex="1" parent="vu7ZgvzgDM2wSOWyn7wq-20">
          <mxGeometry y="26" width="200" height="26" as="geometry" />
        </mxCell>
        <mxCell id="vu7ZgvzgDM2wSOWyn7wq-26" value="+ min temperature" style="text;strokeColor=none;fillColor=none;align=left;verticalAlign=top;spacingLeft=4;spacingRight=4;overflow=hidden;rotatable=0;points=[[0,0.5],[1,0.5]];portConstraint=eastwest;whiteSpace=wrap;html=1;" vertex="1" parent="vu7ZgvzgDM2wSOWyn7wq-20">
          <mxGeometry y="52" width="200" height="26" as="geometry" />
        </mxCell>
        <mxCell id="vu7ZgvzgDM2wSOWyn7wq-22" value="+ max rainfall" style="text;strokeColor=none;fillColor=none;align=left;verticalAlign=top;spacingLeft=4;spacingRight=4;overflow=hidden;rotatable=0;points=[[0,0.5],[1,0.5]];portConstraint=eastwest;whiteSpace=wrap;html=1;" vertex="1" parent="vu7ZgvzgDM2wSOWyn7wq-20">
          <mxGeometry y="78" width="200" height="26" as="geometry" />
        </mxCell>
        <mxCell id="vu7ZgvzgDM2wSOWyn7wq-23" value="+ max snowfall" style="text;strokeColor=none;fillColor=none;align=left;verticalAlign=top;spacingLeft=4;spacingRight=4;overflow=hidden;rotatable=0;points=[[0,0.5],[1,0.5]];portConstraint=eastwest;whiteSpace=wrap;html=1;" vertex="1" parent="vu7ZgvzgDM2wSOWyn7wq-20">
          <mxGeometry y="104" width="200" height="26" as="geometry" />
        </mxCell>
        <mxCell id="vu7ZgvzgDM2wSOWyn7wq-24" value="+ max wind speed" style="text;strokeColor=none;fillColor=none;align=left;verticalAlign=top;spacingLeft=4;spacingRight=4;overflow=hidden;rotatable=0;points=[[0,0.5],[1,0.5]];portConstraint=eastwest;whiteSpace=wrap;html=1;" vertex="1" parent="vu7ZgvzgDM2wSOWyn7wq-20">
          <mxGeometry y="130" width="200" height="26" as="geometry" />
        </mxCell>
        <mxCell id="vu7ZgvzgDM2wSOWyn7wq-28" value="1" style="text;html=1;align=center;verticalAlign=middle;whiteSpace=wrap;rounded=0;" vertex="1" parent="1">
          <mxGeometry x="-686" y="-351" width="26" height="30" as="geometry" />
        </mxCell>
        <mxCell id="vu7ZgvzgDM2wSOWyn7wq-29" value="1" style="text;html=1;align=center;verticalAlign=middle;whiteSpace=wrap;rounded=0;" vertex="1" parent="1">
          <mxGeometry x="-660" y="-295" width="26" height="30" as="geometry" />
        </mxCell>
      </root>
    </mxGraphModel>
  </diagram>
</mxfile>
